<?xml version="1.0" encoding="UTF-8"?>
<svg width="512" height="512" viewBox="0 0 512 512" xmlns="http://www.w3.org/2000/svg">
    <!-- Fundo -->
    <rect width="512" height="512" fill="#1a237e"/>
    
    <!-- Círculo externo -->
    <circle cx="256" cy="256" r="240" fill="#283593" stroke="#3949ab" stroke-width="8"/>
    
    <!-- Engrenagem principal -->
    <g transform="translate(256, 256)">
        <!-- Engrenagem externa -->
        <path d="M-120,0 C-120,-66.3 -66.3,-120 0,-120 C66.3,-120 120,-66.3 120,0 C120,66.3 66.3,120 0,120 C-66.3,120 -120,66.3 -120,0 Z" 
              fill="#3949ab" stroke="#5c6bc0" stroke-width="4"/>
        
        <!-- Dentes da engrenagem -->
        <g fill="#5c6bc0">
            <rect x="-140" y="-10" width="40" height="20" rx="5"/>
            <rect x="100" y="-10" width="40" height="20" rx="5"/>
            <rect x="-10" y="-140" width="20" height="40" rx="5"/>
            <rect x="-10" y="100" width="20" height="40" rx="5"/>
        </g>
        
        <!-- Círculo interno -->
        <circle cx="0" cy="0" r="60" fill="#1a237e" stroke="#3949ab" stroke-width="4"/>
        
        <!-- Chave inglesa -->
        <g transform="rotate(45)">
            <rect x="-80" y="-10" width="160" height="20" rx="10" fill="#5c6bc0"/>
            <circle cx="-80" cy="0" r="20" fill="#5c6bc0"/>
            <path d="M-100,-20 L-100,20 L-60,20 L-60,-20 Z" fill="#3949ab"/>
        </g>
    </g>
</svg> 